<?xml version="1.0" encoding="UTF-8" standalone="no"?>
<!-- Created with Inkscape (http://www.inkscape.org/) -->

<svg
   xmlns:dc="http://purl.org/dc/elements/1.1/"
   xmlns:cc="http://creativecommons.org/ns#"
   xmlns:rdf="http://www.w3.org/1999/02/22-rdf-syntax-ns#"
   xmlns:svg="http://www.w3.org/2000/svg"
   xmlns="http://www.w3.org/2000/svg"
   xmlns:sodipodi="http://sodipodi.sourceforge.net/DTD/sodipodi-0.dtd"
   xmlns:inkscape="http://www.inkscape.org/namespaces/inkscape"
   width="256"
   height="256"
   viewBox="0 0 67.73333 67.733335"
   version="1.1"
   id="svg8"
   inkscape:version="0.92.1 r15371"
   sodipodi:docname="invoicepdf.svg"
   inkscape:export-filename="C:\Users\ole.koeckemann\Documents\PRIVAT\wc-invoice-pdf.git\assets\icon-128x128.png"
   inkscape:export-xdpi="48"
   inkscape:export-ydpi="48">
  <defs
     id="defs2">
    <marker
       inkscape:isstock="true"
       style="overflow:visible"
       id="marker21892"
       refX="0"
       refY="0"
       orient="auto"
       inkscape:stockid="TriangleOutS">
      <path
         inkscape:connector-curvature="0"
         transform="scale(0.2)"
         style="fill:#000000;fill-opacity:1;fill-rule:evenodd;stroke:#000000;stroke-width:1.00000003pt;stroke-opacity:1"
         d="M 5.77,0 -2.88,5 V -5 Z"
         id="path21890" />
    </marker>
    <marker
       inkscape:stockid="TriangleOutS"
       orient="auto"
       refY="0"
       refX="0"
       id="TriangleOutS"
       style="overflow:visible"
       inkscape:isstock="true"
       inkscape:collect="always">
      <path
         id="path4709"
         d="M 5.77,0 -2.88,5 V -5 Z"
         style="fill:#000000;fill-opacity:1;fill-rule:evenodd;stroke:#000000;stroke-width:1.00000003pt;stroke-opacity:1"
         transform="scale(0.2)"
         inkscape:connector-curvature="0" />
    </marker>
    <marker
       inkscape:stockid="DotS"
       orient="auto"
       refY="0"
       refX="0"
       id="DotS"
       style="overflow:visible"
       inkscape:isstock="true">
      <path
         id="path4628"
         d="m -2.5,-1 c 0,2.76 -2.24,5 -5,5 -2.76,0 -5,-2.24 -5,-5 0,-2.76 2.24,-5 5,-5 2.76,0 5,2.24 5,5 z"
         style="fill:#510000;fill-opacity:1;fill-rule:evenodd;stroke:#510000;stroke-width:1.00000003pt;stroke-opacity:1"
         transform="matrix(0.2,0,0,0.2,1.48,0.2)"
         inkscape:connector-curvature="0" />
    </marker>
    <marker
       inkscape:stockid="Arrow1Send"
       orient="auto"
       refY="0"
       refX="0"
       id="Arrow1Send"
       style="overflow:visible"
       inkscape:isstock="true">
      <path
         id="path4576"
         d="M 0,0 5,-5 -12.5,0 5,5 Z"
         style="fill:#510000;fill-opacity:1;fill-rule:evenodd;stroke:#510000;stroke-width:1.00000003pt;stroke-opacity:1"
         transform="matrix(-0.2,0,0,-0.2,-1.2,0)"
         inkscape:connector-curvature="0" />
    </marker>
    <marker
       inkscape:stockid="TriangleOutM"
       orient="auto"
       refY="0"
       refX="0"
       id="marker16111"
       style="overflow:visible"
       inkscape:isstock="true">
      <path
         id="path16109"
         d="M 5.77,0 -2.88,5 V -5 Z"
         style="fill:none;fill-opacity:1;fill-rule:evenodd;stroke:#510000;stroke-width:1.00000003pt;stroke-opacity:1"
         transform="scale(0.4)"
         inkscape:connector-curvature="0" />
    </marker>
    <marker
       inkscape:stockid="TriangleOutM"
       orient="auto"
       refY="0"
       refX="0"
       id="TriangleOutM"
       style="overflow:visible"
       inkscape:isstock="true">
      <path
         id="path4706"
         d="M 5.77,0 -2.88,5 V -5 Z"
         style="fill:none;fill-opacity:1;fill-rule:evenodd;stroke:#000000;stroke-width:1.00000003pt;stroke-opacity:1"
         transform="scale(0.4)"
         inkscape:connector-curvature="0" />
    </marker>
    <marker
       inkscape:stockid="Arrow1Mend"
       orient="auto"
       refY="0"
       refX="0"
       id="Arrow1Mend"
       style="overflow:visible"
       inkscape:isstock="true">
      <path
         id="path4570"
         d="M 0,0 5,-5 -12.5,0 5,5 Z"
         style="fill:#000000;fill-opacity:1;fill-rule:evenodd;stroke:#000000;stroke-width:1.00000003pt;stroke-opacity:1"
         transform="matrix(-0.4,0,0,-0.4,-4,0)"
         inkscape:connector-curvature="0" />
    </marker>
    <marker
       inkscape:stockid="Arrow1Lend"
       orient="auto"
       refY="0"
       refX="0"
       id="Arrow1Lend"
       style="overflow:visible"
       inkscape:isstock="true">
      <path
         id="path4564"
         d="M 0,0 5,-5 -12.5,0 5,5 Z"
         style="fill:#000000;fill-opacity:1;fill-rule:evenodd;stroke:#000000;stroke-width:1.00000003pt;stroke-opacity:1"
         transform="matrix(-0.8,0,0,-0.8,-10,0)"
         inkscape:connector-curvature="0" />
    </marker>
    <marker
       inkscape:stockid="TriangleOutS"
       orient="auto"
       refY="0"
       refX="0"
       id="TriangleOutS-0"
       style="overflow:visible"
       inkscape:isstock="true">
      <path
         id="path4709-6"
         d="M 5.77,0 -2.88,5 V -5 Z"
         style="fill:#000000;fill-opacity:1;fill-rule:evenodd;stroke:#000000;stroke-width:1.00000003pt;stroke-opacity:1"
         transform="scale(0.2)"
         inkscape:connector-curvature="0" />
    </marker>
  </defs>
  <sodipodi:namedview
     id="base"
     pagecolor="#ffffff"
     bordercolor="#666666"
     borderopacity="1.0"
     inkscape:pageopacity="0.0"
     inkscape:pageshadow="2"
     inkscape:zoom="1.979899"
     inkscape:cx="3.6033494"
     inkscape:cy="67.886005"
     inkscape:document-units="px"
     inkscape:current-layer="layer1"
     showgrid="false"
     units="px">
    <sodipodi:guide
       position="0,0"
       orientation="0,256"
       id="guide21868"
       inkscape:locked="false" />
    <sodipodi:guide
       position="67.733332,0"
       orientation="-256,0"
       id="guide21870"
       inkscape:locked="false" />
    <sodipodi:guide
       position="67.733332,67.733332"
       orientation="0,-256"
       id="guide21872"
       inkscape:locked="false" />
    <sodipodi:guide
       position="0,67.733332"
       orientation="256,0"
       id="guide21874"
       inkscape:locked="false" />
  </sodipodi:namedview>
  <metadata
     id="metadata5">
    <rdf:RDF>
      <cc:Work
         rdf:about="">
        <dc:format>image/svg+xml</dc:format>
        <dc:type
           rdf:resource="http://purl.org/dc/dcmitype/StillImage" />
        <dc:title></dc:title>
      </cc:Work>
    </rdf:RDF>
  </metadata>
  <g
     inkscape:label="Layer 1"
     inkscape:groupmode="layer"
     id="layer1"
     transform="translate(0,-229.26665)"
     style="display:inline">
    <g
       id="g21978"
       inkscape:label="icon">
      <path
         sodipodi:nodetypes="cssccccsc"
         id="path3702"
         d="M 60.207498,229.26665 H 7.5260146 c -4.1770198,0 -7.5260096340812,3.34906 -7.5260096340812,7.52598 V 289.474 C -2.503408e-5,293.6305 3.3695068,297.00002 7.5260146,296.99998 H 60.207458 c 4.15646,-2e-5 7.5259,-3.36952 7.52588,-7.52598 v -52.68131 c 0,-4.17692 -3.38662,-7.52598 -7.52588,-7.52598"
         inkscape:connector-curvature="0"
         style="display:inline;fill:#a16394;fill-opacity:1;stroke-width:3.76296163"
         inkscape:label="rectangle"
         inkscape:export-filename="C:\Users\ole.koeckemann\Documents\PRIVAT\wc-invoice-pdf-assets\icon-128x128.png"
         inkscape:export-xdpi="96"
         inkscape:export-ydpi="96" />
      <path
         inkscape:label="adobe-sign"
         inkscape:connector-curvature="0"
         id="rect3715-3"
         d="m 30.856619,239.80237 c -1.39238,0 -2.634499,1.4681 -2.972419,2.89802 -1.39188,5.0048 -0.56452,7.75194 0.82786,12.30518 v 0.0424 c -0.94068,3.3115 -2.14474,7.14984 -4.06384,11.02568 -1.27922,2.52116 -2.48322,4.81604 -3.61218,6.77272 -1.50514,0.71468 -2.63414,1.3176 -3.34968,1.84382 -4.51544,2.82226 -6.66002,5.98341 -7.07346,7.97779 -0.1498,0.71496 -0.0756,1.35494 0.1882,2.03192 l 0.1148,0.1882 1.8066,1.16582 c 0.45134,0.26308 1.05412,0.41444 1.65572,0.41444 3.04792,0 6.50956,-3.57524 11.17554,-11.55277 0.26368,-0.1124 0.48876,-0.1924 0.67696,-0.26356 3.875839,-1.24174 8.692779,-2.10614 15.164959,-2.82152 3.76296,1.91844 8.429459,2.78432 11.289239,2.78432 1.65568,0 2.7841,-0.41426 3.42408,-1.12964 l -0.004,-0.004 c 0.67712,-0.67726 1.01476,-1.5435 1.05316,-2.48358 0.114,-0.75264 -0.0732,-1.46752 -0.44958,-2.06912 -1.09132,-1.76882 -3.91424,-2.59726 -8.580339,-2.59726 -1.54278,0 -3.16014,0.0758 -4.85346,0.26356 -1.20422,-0.6774 -2.2963,-1.43048 -3.27422,-2.18282 -2.37056,-1.95684 -4.51514,-5.38136 -6.0203,-9.63352 0.0358,-0.1124 0.074,-0.29994 0.1508,-0.52606 1.24006,-5.00466 2.40606,-11.06282 -0.0776,-13.54646 -0.60212,-0.6016 -1.4289,-0.9033 -2.29548,-0.9033 z m 0.56844,2.33784 0.56432,0.1882 c 0.64,0.90312 0.71428,1.99442 0.33796,4.13928 l -0.1158,0.60152 c -0.224,0.82788 -0.33784,1.88148 -0.60152,3.0861 l -0.186,0.1488 c 2.8e-4,0.001 5.4e-4,0.002 0.0011,0.004 l -0.004,-0.001 0.002,-0.002 c -0.86448,-3.38526 -0.90232,-6.13116 -0.26252,-7.71116 0.0754,-0.1508 0.1868,-0.3389 0.26356,-0.4527 z m 0.29972,17.00878 c 1.54278,3.38674 3.5,6.17146 5.7578,8.09046 0.45222,0.41388 0.97754,0.82718 1.54202,1.20406 -3.27372,0.60204 -7.7887,1.65578 -12.567699,3.49954 l -0.41342,0.151 c 0.30106,-1.12896 1.12838,-2.48408 1.88102,-3.91398 1.693299,-3.27382 2.934999,-6.2464 3.800279,-9.03098 z m 15.68898,10.34356 c 5.268079,0 6.772599,0.93982 7.148899,1.31672 l 0.002,0.006 c 0.187,0.1508 0.26118,0.2996 0.33798,0.4134 -0.0358,0.37544 -0.1498,0.4187 -0.33798,0.4899 h -0.1508 c -0.22654,0.0284 -0.45254,0.0714 -0.71622,0.0714 -1.73106,0 -4.402959,-0.71464 -7.149959,-1.91926 0.3392,-0.37688 0.60242,-0.37724 0.8661,-0.37724 z m -27.356479,6.81714 c -2.4455,4.47655 -4.66522,6.95955 -6.35826,7.52409 0.1882,-1.4299 1.88108,-3.91335 4.55268,-6.35929 0.37612,-0.29994 1.01516,-0.71284 1.80558,-1.1648 z"
         style="display:none;fill:#b3b3b3;stroke-width:1.73838329" />
      <path
         inkscape:label="repeat"
         sodipodi:nodetypes="czc"
         inkscape:connector-curvature="0"
         id="path3754"
         d="m 54.209578,275.97233 c -9.614599,20.79621 -45.5659515,13.96885 -45.5659515,-12.60024 0,-26.56912 33.8370925,-33.72728 45.9220115,-12.79558"
         style="display:inline;fill:none;fill-opacity:1;stroke:#000000;stroke-width:5.13799953;stroke-linecap:butt;stroke-linejoin:miter;stroke-miterlimit:4;stroke-dasharray:none;stroke-opacity:1;marker-end:url(#TriangleOutS)" />
      <path
         inkscape:label="dollar"
         inkscape:export-ydpi="96"
         inkscape:export-xdpi="96"
         inkscape:export-filename="C:\Users\ole.koeckemann\Documents\PRIVAT\wc-invoice-pdf-assets\icon-128x128.png"
         style="fill:#f2f2f2;stroke-width:2.32505727"
         inkscape:connector-curvature="0"
         d="m 34.603719,260.95075 c -5.2338,-1.38382 -6.916999,-2.81344 -6.916999,-5.04064 0,-2.55588 2.328699,-4.33764 6.225279,-4.33764 4.1042,0 5.62598,1.99296 5.76448,4.92358 h 5.09542 c -0.1626,-4.03256 -2.5824,-7.73702 -7.40122,-8.93282 v -5.13466 h -6.9171 v 5.0644 c -4.473099,0.98418 -8.070019,3.93884 -8.070019,8.46392 0,5.41596 4.4041,8.11222 10.836739,9.68306 5.76434,1.40658 6.9171,3.46994 6.9171,5.6505 0,1.61776 -1.13024,4.19682 -6.2254,4.19682 -4.749679,0 -6.617199,-2.15708 -6.916979,-4.92372 h -5.02644 c 0.27648,5.13464 4.05786,8.01848 8.484999,8.97976 v 5.08771 h 6.9171 v -5.04077 c 4.49614,-0.82062 8.07002,-3.51688 8.07002,-8.32314 0,-6.65884 -5.60294,-8.9095 -10.83698,-10.31636 z"
         id="path3680" />
    </g>
  </g>
</svg>
