<?xml version="1.0" encoding="UTF-8" standalone="no"?>
<!-- Created with Inkscape (http://www.inkscape.org/) -->

<svg
   xmlns:dc="http://purl.org/dc/elements/1.1/"
   xmlns:cc="http://creativecommons.org/ns#"
   xmlns:rdf="http://www.w3.org/1999/02/22-rdf-syntax-ns#"
   xmlns:svg="http://www.w3.org/2000/svg"
   xmlns="http://www.w3.org/2000/svg"
   xmlns:sodipodi="http://sodipodi.sourceforge.net/DTD/sodipodi-0.dtd"
   xmlns:inkscape="http://www.inkscape.org/namespaces/inkscape"
   width="210mm"
   height="297mm"
   viewBox="0 0 210 297"
   version="1.1"
   id="svg8"
   inkscape:export-filename="C:\Users\ole.koeckemann\Downloads\invoicepdf.png"
   inkscape:export-xdpi="240"
   inkscape:export-ydpi="240"
   inkscape:version="0.92.1 r15371"
   sodipodi:docname="invoicepdf.svg">
  <defs
     id="defs2" />
  <sodipodi:namedview
     id="base"
     pagecolor="#ffffff"
     bordercolor="#666666"
     borderopacity="1.0"
     inkscape:pageopacity="0.0"
     inkscape:pageshadow="2"
     inkscape:zoom="1.979899"
     inkscape:cx="600.06916"
     inkscape:cy="605.56783"
     inkscape:document-units="mm"
     inkscape:current-layer="g3682"
     showgrid="false" />
  <metadata
     id="metadata5">
    <rdf:RDF>
      <cc:Work
         rdf:about="">
        <dc:format>image/svg+xml</dc:format>
        <dc:type
           rdf:resource="http://purl.org/dc/dcmitype/StillImage" />
        <dc:title />
      </cc:Work>
    </rdf:RDF>
  </metadata>
  <g
     inkscape:label="Ebene 1"
     inkscape:groupmode="layer"
     id="layer1">
    <g
       id="g3682"
       inkscape:export-filename="C:\Users\ole.koeckemann\Documents\PRIVAT\wc-invoice-pdf-assets\icon-256x256.png"
       inkscape:export-xdpi="96"
       inkscape:export-ydpi="96">
      <rect
         inkscape:export-ydpi="96"
         inkscape:export-xdpi="96"
         inkscape:export-filename="C:\Users\ole.koeckemann\Documents\PRIVAT\wc-invoice-pdf-assets\icon-256x256.png"
         y="86.569519"
         x="99.959"
         height="50.765083"
         width="51.322598"
         id="rect3715"
         style="fill:#ffffff;stroke-width:1.71384561" />
      <path
         inkscape:export-ydpi="96"
         inkscape:export-xdpi="96"
         inkscape:export-filename="C:\Users\ole.koeckemann\Documents\PRIVAT\wc-invoice-pdf-assets\icon-128x128.png"
         inkscape:label="path3702"
         style="fill:#aa0000;stroke-width:1.88148093"
         inkscape:connector-curvature="0"
         d="m 106.20339,126.83195 c -0.43264,1.39229 -1.05363,2.87865 -1.90028,4.51556 -0.37632,0.71495 -0.79021,1.39228 -0.94074,1.95676 l 0.20672,-0.0754 v 0 c 2.3895,-0.92188 4.6473,-1.44874 6.28416,-1.74976 -0.28224,-0.18844 -0.54528,-0.39537 -0.77139,-0.60231 -1.1289,-0.9595 -2.10727,-2.35178 -2.87866,-4.04515 m 12.19199,7.16842 c -0.31999,0.35769 -0.88428,0.56463 -1.71212,0.56463 -1.42989,0 -3.76301,-0.43307 -5.64448,-1.39229 -3.23609,0.35769 -5.64441,0.79019 -7.58233,1.41106 -0.0941,0.0356 -0.20672,0.0754 -0.33856,0.13155 -2.33299,3.98877 -4.063998,5.77622 -5.587963,5.77622 -0.3008,0 -0.60224,-0.0754 -0.827905,-0.20694 l -0.903106,-0.58311 -0.0576,-0.0939 c -0.13184,-0.33849 -0.16896,-0.65849 -0.09408,-1.01597 0.20672,-0.99719 1.279361,-2.57763 3.537086,-3.98876 0.35776,-0.26311 0.921988,-0.56462 1.674558,-0.92196 0.56448,-0.97834 1.1666,-2.12608 1.80621,-3.38666 0.95955,-1.93792 1.56166,-3.857 2.032,-5.51275 v -0.0213 c -0.69619,-2.27662 -1.11002,-3.65006 -0.41408,-6.15246 0.16896,-0.71496 0.79021,-1.44875 1.4864,-1.44875 h 0.4512 c 0.43328,0 0.84665,0.15075 1.14771,0.45155 1.24179,1.24182 0.65843,4.27101 0.0384,6.77334 -0.0384,0.11306 -0.0576,0.20693 -0.0755,0.26311 0.75258,2.12608 1.82509,3.83822 3.01037,4.81664 0.48896,0.37617 1.03481,0.75257 1.63692,1.09127 0.84666,-0.0939 1.65568,-0.13156 2.42707,-0.13156 2.33306,0 3.74413,0.41387 4.28979,1.29828 0.18816,0.3008 0.28224,0.65849 0.22528,1.03481 -0.0192,0.47004 -0.18816,0.90311 -0.52672,1.24174 m 2.05082,-22.10738 H 94.103817 c -2.08851,0 -3.763005,1.67453 -3.763005,3.76299 v 26.34069 a 3.7629609,3.7629632 0 0 0 3.763005,3.76299 h 26.340723 a 3.7629609,3.7629632 0 0 0 3.76294,-3.76299 V 115.6535 c 0,-2.08846 -1.69331,-3.76299 -3.76294,-3.76299 m -2.82227,20.77156 c -0.18816,-0.18845 -0.94074,-0.65849 -3.57478,-0.65849 -0.13184,0 -0.26304,0 -0.43264,0.18844 1.3735,0.60231 2.70931,0.95958 3.57484,0.95958 0.13184,0 0.24448,-0.0214 0.35776,-0.0356 h 0.0755 c 0.0941,-0.0356 0.15104,-0.0569 0.16896,-0.24462 -0.0384,-0.0569 -0.0755,-0.13156 -0.16896,-0.20694 m -17.25317,2.74696 c -0.395523,0.22613 -0.714948,0.43306 -0.903108,0.58311 -1.335805,1.22297 -2.18246,2.46478 -2.27654,3.17973 0.846655,-0.28231 1.95667,-1.52405 3.179648,-3.76299 m 5.68211,-13.00102 0.0941,-0.0754 c 0.13184,-0.60231 0.1888,-1.12889 0.3008,-1.54283 l 0.0576,-0.3008 c 0.18816,-1.07243 0.15104,-1.61806 -0.16896,-2.06962 l -0.28224,-0.0939 c -0.0384,0.0569 -0.0941,0.15075 -0.13184,0.22613 -0.32,0.79026 -0.3008,2.1637 0.13184,3.85707 z"
         id="path3702" />
    </g>
    <path
       id="path3680"
       d="m 117.62227,132.66207 c -2.6169,-0.69191 -3.4585,-1.40672 -3.4585,-2.52032 0,-1.27794 1.16435,-2.16882 3.11264,-2.16882 2.0521,0 2.81299,0.99648 2.88224,2.46179 h 2.54771 c -0.0813,-2.01628 -1.2912,-3.86851 -3.70061,-4.46641 v -2.56733 h -3.45855 v 2.5322 c -2.23655,0.49209 -4.03501,1.96942 -4.03501,4.23196 0,2.70798 2.20205,4.05611 5.41837,4.84153 2.88217,0.70329 3.45855,1.73497 3.45855,2.82525 0,0.80888 -0.56512,2.09841 -3.1127,2.09841 -2.37484,0 -3.3086,-1.07854 -3.45849,-2.46186 h -2.51322 c 0.13824,2.56732 2.02893,4.00924 4.2425,4.48988 v 2.54386 h 3.45855 v -2.52039 c 2.24807,-0.41031 4.03501,-1.75844 4.03501,-4.16157 0,-3.32942 -2.80147,-4.45475 -5.41849,-5.15818 z"
       inkscape:connector-curvature="0"
       style="fill:#000000;stroke-width:1.16252875"
       inkscape:export-filename="C:\Users\ole.koeckemann\Documents\PRIVAT\wc-invoice-pdf-assets\icon-128x128.png"
       inkscape:export-xdpi="96"
       inkscape:export-ydpi="96" />
  </g>
</svg>
